<svg height="512" viewBox="0 0 512 512" width="512" xmlns="http://www.w3.org/2000/svg"><g><circle cx="248" cy="424" fill="#333" r="64"/><circle cx="248" cy="424" fill="#dff1fc" r="32"/><path d="m247.993 432a8 8 0 0 1 -6.547-12.589l56-80a8 8 0 1 1 13.108 9.176l-56 80a7.99 7.99 0 0 1 -6.561 3.413z" fill="#dae3e8"/><path d="m199.505 319.283c-.175-6.27-11.271-15.665-16.188-20.3-22.723-21.407-23.347-44.723-22.543-76.1.154-6.006 6.7-9.98 12.708-9.81s11.369 4.211 14.675 9.228 4.9 10.939 6.391 16.759c2.341 9.148 4.551 18.329 6.761 27.51l10.491 43.584c.776 3.226 1.558 6.553 1.045 9.831s-2.647 6.533-5.868 7.328-7.377-4.713-7.472-8.03z" fill="#212021"/><path d="m205.8 285.247-26.126 10.084c1.148 1.225 2.354 2.444 3.64 3.656 4.917 4.631 16.013 14.026 16.188 20.3.093 3.317 4.248 8.824 7.47 8.03s5.356-4.05 5.868-7.328-.269-6.605-1.045-9.831q-2.995-12.458-5.995-24.911z" fill="#dff1fc"/><path d="m25 223c8 16 33.042 35.641 40 40 17.259 10.811 27.637 15.7 48 16s43.195-.178 60.558-10.821c7.831-4.8 15.49-10.435 20.254-18.287s6.068-18.376 1.138-26.125c-5.676-8.92-17.921-11.666-28.249-9.4s-19.272 8.469-28.1 14.283-18.256 11.516-28.78 12.53a24.652 24.652 0 0 0 -28.386-7.493c-5.409-13.187-18.166-22.917-32.415-22.741 5.734-10.331 11.579-21.269 17.313-31.6-8.89-10.079-18.551-22-27.441-32.075-6.025 2.984-10.886 8.637-11.517 15.331a20.218 20.218 0 0 0 7.781 17.676c-8.477 14.322-13.744 26.47-10.156 42.722z" fill="#f98800"/><path d="m194.95 223.767a19.193 19.193 0 0 0 -3.485-4.052 48.733 48.733 0 0 1 -16.279 22.4c-9.988 7.8-22.354 12.065-34.847 14.188-37.392 6.356-74.416-6.153-100.995-33.212-1.116-15.958 3.53-31.685 10.712-45.979a33.6 33.6 0 0 1 -18.622-23.953 17.524 17.524 0 0 0 -4.059 9.447 20.218 20.218 0 0 0 7.781 17.676c-8.477 14.318-13.744 26.466-10.156 42.718 8 16 33.042 35.641 40 40 17.259 10.811 27.637 15.7 48 16s43.195-.178 60.558-10.821c7.831-4.8 15.49-10.435 20.254-18.287s6.068-18.376 1.138-26.125z" fill="#c16806"/><path d="m66.333 179.347c-8.89-10.079-18.551-22-27.441-32.075-6.025 2.984-10.886 8.637-11.517 15.331a20.218 20.218 0 0 0 7.781 17.676 115.837 115.837 0 0 0 -7.143 13.728l23.787 11.893c4.837-8.8 9.724-17.889 14.533-26.553z" fill="#333"/><circle cx="201" cy="143" fill="#fad6c6" r="72"/><circle cx="224" cy="168" fill="#f78663" r="16"/><path d="m206.088 136.253a149.658 149.658 0 0 1 64.129-13.064 72.016 72.016 0 1 0 -24.017 75.843c-13.493-2.886-25.915-8.128-38.232-15.23-1.005-15.582-.879-31.968-1.88-47.549z" fill="#eaaa94"/><path d="m281 111c-31.693.784-65.017 11.148-94.794 22.03 2.036 9.258 4.723 20.351 6.759 29.61 22.377 6.018 45.091 15.432 66.811 23.507 6.309-4.722 11.61-9.085 17.919-13.807 4.678 4.087 9.566 6.541 14.243 10.628-2 16.027-12.321 30.443-26.3 38.537-44.359-16.105-105.491-28.421-152.638-30.505l16-16s-9.744-21.58-16-32a43.639 43.639 0 0 0 -8 0s4.1-13.853 5.382-17.738a101.9 101.9 0 0 1 11.667-24.023 100.388 100.388 0 0 1 39.6-35.117c23.8-11.549 52.219-12.765 77.124-4.05 19.956 6.981 40.146 26.59 42.227 48.928z" fill="#fcc200"/><g fill="#f98800"><path d="m129 175-16 16c47.147 2.084 108.28 14.4 152.64 30.5a54.581 54.581 0 0 0 7.567-5.295 373.494 373.494 0 0 0 -145.561-44.17c.854 1.845 1.354 2.965 1.354 2.965z"/><path d="m250.711 67.755a64.227 64.227 0 0 0 -11.935-5.683c-24.9-8.715-53.322-7.5-77.124 4.05a100.388 100.388 0 0 0 -39.6 35.117 101.9 101.9 0 0 0 -11.667 24.023c-1.285 3.885-5.385 17.738-5.385 17.738s.291-.039.857-.079c32.467-46.213 88.443-74.961 144.854-75.166z"/></g><path d="m233 95s-15.2-18.545-24-24c0 0 80.6 6.093 118.853 12.675-4.206-.724-12.39 2.961-16.526 4.016q-8.873 2.263-17.689 4.744-17.946 5.049-35.626 10.985c-22.768 7.646-49.934 21.169-72.012 30.58 1.962-2.517 47-39 47-39z" fill="#dff1fc"/><g fill="#333"><path d="m167.839 262.035c5.147 4.165 12.349 4.333 18.97 4.308l21.854-.083c6.26-.024 12.629-.373 17.953-3.665s8.7-10.744 5-15.791c-3.622-4.937-9.856-6.517-15.92-5.674-8.609 1.2-16.636.465-25.244 1.661 1.949-6.5 2.224-9.469.966-16.142s-6.864-13.056-13.647-12.731c-18.485.887-21.464 38.782-9.932 48.117z"/><path d="m194.3 160.538-73.63 11.611-7.282-21.972a306.043 306.043 0 0 1 75.132-20.6z"/><circle cx="424" cy="296" r="64"/></g><circle cx="424" cy="296" fill="#dff1fc" r="32"/><path d="m320 240s-15.238-8.09-16-8c-.025 0-23.982 7.982-24 8-8 8 0 24 0 32s0 16-8 24c-10.231 10.231-20.255 7.853-33.99 12.4-26.39 8.741-62.01 27.6-78.01 51.6 24-16 33.072-11.011 56-16 2 3.451 8 16 8 16 8 0 42-7 50-23 5.072-10.145 6-17 6-17l32-32h16c0-8-8-48-8-48z" fill="#fcc200"/><path d="m328 248c15.277-22.407 36.886-39.445 64-40-30.408-10.262-65.763.86-88 24z" fill="#f98800"/><path d="m312 288 16 40-16 16-38-7 6-25z" fill="#333"/><path d="m423.993 304a7.975 7.975 0 0 1 -3.758-.943l-118.235-63.057h-57.2l-5.741 10.765a8 8 0 0 1 -14.118-7.53l8-15a8 8 0 0 1 7.059-4.235h64a8 8 0 0 1 3.765.941l120 64a8 8 0 0 1 -3.772 15.059z" fill="#dae3e8"/><path d="m240 152a8 8 0 0 1 -8-8v-8a8 8 0 0 1 16 0v8a8 8 0 0 1 -8 8z" fill="#683b11"/><path d="m231.617 246.8c-3.622-4.937-9.856-6.517-15.921-5.674a134.594 134.594 0 0 1 -14.68.893q-.57 12.135-1.141 24.27l8.788-.033c6.26-.024 12.629-.373 17.954-3.665s8.702-10.74 5-15.791z" fill="#dff1fc"/></g></svg>